# xmcd
#
# Track frame offsets:
# 150
# 21306
# 40303
# 52161
# 73542
# 86148
# 104888
# 127545
# 142102
# 153987
# 164794
# 186103
# 208011
# 219714
# 231497
#
# Disc length: 3353 seconds
#
#
# Revision: 0
# Processed by: cddbd v1.5PL3 Copyright (c) Steve Scherf et al.
# Submitted via: FreeRIP 2.53 
#
DISCID=eb0d170f
DTITLE=Lightnin' Hopkins - Don't Treat That Man the Way You Treat Me
DYEAR=1900
DGENRE=Blues
TTITLE0=Goin' Back Home
TTITLE1=Good Times
TTITLE2=Lonesome Dog
TTITLE3=Shake It Baby
TTITLE4=Rosie Mae
TTITLE5=Don't Treat That Man the Way You Treat Me
TTITLE6=I'll Be Gone
TTITLE7=Santa Fe Blues
TTITLE8=Shining Moon
TTITLE9=What'd I Say
TTITLE10=Don't Wake Me
TTITLE11=I'm Gonna Meet My Baby Somewhere
TTITLE12=Sittin' Down Thinkin'
TTITLE13=Talk of the Town
TTITLE14=You Treat Poor Lightnin' Wrong
EXTD=
EXTT0=
EXTT1=
EXTT2=
EXTT3=
EXTT4=
EXTT5=
EXTT6=
EXTT7=
EXTT8=
EXTT9=
EXTT10=
EXTT11=
EXTT12=
EXTT13=
EXTT14=
PLAYORDER=
